<?xml version="1.0" encoding="utf-8"?>
<!-- Generator: Adobe Illustrator 22.0.1, SVG Export Plug-In . SVG Version: 6.00 Build 0)  -->
<svg version="1.1" id="Layer_1" xmlns="http://www.w3.org/2000/svg" xmlns:xlink="http://www.w3.org/1999/xlink" x="0px" y="0px"
	 viewBox="0 0 256 256" style="enable-background:new 0 0 256 256;" xml:space="preserve">
<style type="text/css">
	.st0{fill:#3A312A;}
	.st1{fill:#D6DF58;}
	.st2{fill:#87796F;}
	.st3{fill:#B9C239;}
	.st4{fill:#EF6D7A;}
	.st5{fill:#FCE8CB;}
	.st6{fill:#D5DE58;}
	.st7{fill:#D34E5C;}
	.st8{fill:#695B51;}
	.st9{fill:#8AC6DD;}
	.st10{fill:#D7E057;}
	.st11{fill:#B8C136;}
	.st12{fill:#F16C7A;}
	.st13{fill:#8AC2D9;}
	.st14{fill:#F7E3C7;}
	.st15{fill:#8AC3DA;}
	.st16{fill:#6DA3BC;}
	.st17{fill:#6A5C52;}
	.st18{fill:#D5DC57;}
	.st19{fill:#F6E2C6;}
	.st20{fill:#DBC7AA;}
	.st21{fill:#CE4E61;}
	.st22{fill:#FAE6CA;}
	.st23{fill:#8AC5DC;}
	.st24{fill:#DDC9AC;}
	.st25{fill:#DECAAD;}
	.st26{fill:#6CA6BE;}
	.st27{fill:#F8E4C8;}
	.st28{fill:#89C4DB;}
	.st29{fill:#ED6E7A;}
	.st30{fill:#D24E5C;}
	.st31{fill:#6DA4BD;}
	.st32{fill:#EB6E7A;}
	.st33{fill:#68A7BB;}
	.st34{fill:#B9BC37;}
	.st35{fill:#CC4E61;}
	.st36{fill:#6CA8BF;}
	.st37{fill-rule:evenodd;clip-rule:evenodd;fill:#D5DE58;}
	.st38{fill:#EA6D7A;}
	.st39{fill:#F4E0C4;}
	.st40{fill-rule:evenodd;clip-rule:evenodd;fill:#D6DF58;}
	.st41{fill-rule:evenodd;clip-rule:evenodd;fill:#F16C7A;}
	.st42{fill:#F3DEC3;}
	.st43{fill-rule:evenodd;clip-rule:evenodd;fill:#FAE6CA;}
	.st44{fill:#F59689;}
	.st45{fill-rule:evenodd;clip-rule:evenodd;fill:#F8E4C8;}
	.st46{fill-rule:evenodd;clip-rule:evenodd;fill:#FCE8CB;}
	.st47{fill:#F5978A;}
	.st48{fill:#D4DB56;}
	.st49{fill-rule:evenodd;clip-rule:evenodd;fill:#D4DA55;}
	.st50{fill-rule:evenodd;clip-rule:evenodd;fill:#EB6E7A;}
	.st51{fill:#68A6B9;}
	.st52{fill-rule:evenodd;clip-rule:evenodd;fill:#D5DC57;}
	.st53{fill:#8AC1D8;}
	.st54{fill:#F5E1C5;}
	.st55{fill:#D4D752;}
	.st56{fill:#D3D751;}
	.st57{fill:#D4D853;}
	.st58{fill:#E96C7A;}
	.st59{fill:#D4DA55;}
	.st60{fill:#8BC0D7;}
	.st61{fill:#87796F;stroke:#3A312A;stroke-width:3;stroke-linecap:round;stroke-linejoin:round;stroke-miterlimit:10;}
</style>
<g>
	<g>
		<g>
			<rect x="87.5" y="28.511" class="st1" width="73.21" height="38.46"/>
		</g>
	</g>
	<g>
		<g>
			<path class="st0" d="M160.71,27.011H87.5c-0.829,0-1.5,0.671-1.5,1.5v38.46c0,0.829,0.671,1.5,1.5,1.5h73.21
				c0.829,0,1.5-0.671,1.5-1.5v-38.46C162.21,27.682,161.539,27.011,160.71,27.011z M159.21,65.471H89v-35.46h70.21V65.471z"/>
		</g>
	</g>
	<g>
		<g>
			<rect x="160.71" y="44.201" class="st32" width="52.29" height="22.77"/>
		</g>
	</g>
	<g>
		<g>
			<path class="st0" d="M213,42.701h-52.29c-0.829,0-1.5,0.671-1.5,1.5v22.77c0,0.829,0.671,1.5,1.5,1.5H213
				c0.829,0,1.5-0.671,1.5-1.5v-22.77C214.5,43.372,213.829,42.701,213,42.701z M211.5,65.471h-49.29v-19.77h49.29V65.471z"/>
		</g>
	</g>
	<g>
		<g>
			<circle class="st2" cx="133.392" cy="217.732" r="21.759"/>
		</g>
	</g>
	<g>
		<g>
			<path class="st0" d="M133.392,194.473c-12.825,0-23.259,10.434-23.259,23.259s10.434,23.259,23.259,23.259
				s23.259-10.434,23.259-23.259S146.216,194.473,133.392,194.473z M133.392,237.991c-11.171,0-20.259-9.088-20.259-20.259
				s9.088-20.259,20.259-20.259s20.259,9.088,20.259,20.259S144.563,237.991,133.392,237.991z"/>
		</g>
	</g>
	<g>
		<g>
			<path class="st22" d="M133.392,208.831c-4.916,0-8.901,3.985-8.901,8.901c0,4.916,3.985,8.901,8.901,8.901
				c4.916,0,8.901-3.985,8.901-8.901C142.293,212.816,138.307,208.831,133.392,208.831z"/>
		</g>
	</g>
	<g>
		<g>
			<path class="st0" d="M133.392,207.331c-5.735,0-10.401,4.666-10.401,10.401c0,5.735,4.666,10.401,10.401,10.401
				c5.735,0,10.401-4.666,10.401-10.401C143.793,211.997,139.127,207.331,133.392,207.331z M133.392,225.133
				c-4.081,0-7.401-3.32-7.401-7.401c0-4.081,3.32-7.401,7.401-7.401c4.081,0,7.401,3.32,7.401,7.401
				C140.793,221.813,137.473,225.133,133.392,225.133z"/>
		</g>
	</g>
	<g>
		<g>
			<circle class="st2" cx="188.608" cy="217.732" r="21.759"/>
		</g>
	</g>
	<g>
		<g>
			<path class="st0" d="M188.608,194.473c-12.825,0-23.259,10.434-23.259,23.259s10.434,23.259,23.259,23.259
				s23.259-10.434,23.259-23.259S201.433,194.473,188.608,194.473z M188.608,237.991c-11.171,0-20.259-9.088-20.259-20.259
				s9.088-20.259,20.259-20.259s20.259,9.088,20.259,20.259S199.779,237.991,188.608,237.991z"/>
		</g>
	</g>
	<g>
		<g>
			<path class="st22" d="M188.608,208.831c-4.916,0-8.901,3.985-8.901,8.901c0,4.916,3.985,8.901,8.901,8.901
				c4.916,0,8.901-3.985,8.901-8.901C197.51,212.816,193.524,208.831,188.608,208.831z"/>
		</g>
	</g>
	<g>
		<g>
			<path class="st0" d="M188.608,207.331c-5.735,0-10.401,4.666-10.401,10.401c0,5.735,4.666,10.401,10.401,10.401
				s10.401-4.666,10.401-10.401C199.01,211.997,194.344,207.331,188.608,207.331z M188.608,225.133c-4.081,0-7.401-3.32-7.401-7.401
				c0-4.081,3.32-7.401,7.401-7.401s7.401,3.32,7.401,7.401C196.01,221.813,192.69,225.133,188.608,225.133z"/>
		</g>
	</g>
	<g>
		<g>
			<path class="st23" d="M235.986,66.973H77.896l25.01,98.95h105.33c2.922,0,5.511-1.882,6.414-4.661L242.4,75.799
				C243.814,71.442,240.567,66.973,235.986,66.973z"/>
		</g>
	</g>
	<g>
		<g>
			<path class="st0" d="M242.655,68.871c-1.569-2.159-4-3.398-6.669-3.398H77.896c-0.462,0-0.899,0.213-1.184,0.579
				c-0.284,0.365-0.384,0.84-0.271,1.289l25.01,98.95c0.168,0.666,0.767,1.132,1.454,1.132h58.657c0.829,0,1.5-0.671,1.5-1.5
				c0-0.829-0.671-1.5-1.5-1.5h-57.489l-24.252-95.95h156.164c1.698,0,3.244,0.788,4.242,2.161c0.998,1.373,1.27,3.087,0.746,4.702
				l-27.751,85.463c-0.704,2.168-2.708,3.624-4.987,3.624h-31.768c-0.829,0-1.5,0.671-1.5,1.5c0,0.829,0.671,1.5,1.5,1.5h31.768
				c3.583,0,6.734-2.289,7.84-5.697l27.751-85.463C244.651,73.724,244.224,71.03,242.655,68.871z"/>
		</g>
	</g>
	<g>
		<g>
			<path class="st2" d="M219.015,181.471H106.831L66.521,21.984c-0.813-3.219-3.71-5.474-7.03-5.474H20.517
				c-4.005,0-7.251,3.247-7.251,7.251c0,4.004,3.246,7.251,7.251,7.251h33.328l5.531,21.884l3.836,15.176l30.943,122.427
				c0.813,3.219,3.71,5.474,7.03,5.474h117.83c4.005,0,7.251-3.247,7.251-7.251C226.266,184.718,223.019,181.471,219.015,181.471z"
				/>
		</g>
	</g>
	<g>
		<g>
			<path class="st0" d="M219.015,179.971H107.999L67.975,21.616c-0.983-3.89-4.472-6.607-8.484-6.607H20.517
				c-4.825,0-8.751,3.926-8.751,8.751c0,4.826,3.926,8.751,8.751,8.751h32.16l5.245,20.752c0.203,0.803,1.018,1.289,1.822,1.086
				c0.803-0.203,1.289-1.019,1.086-1.822l-5.531-21.884c-0.168-0.666-0.767-1.132-1.454-1.132H20.517
				c-3.171,0-5.751-2.58-5.751-5.751c0-3.171,2.58-5.751,5.751-5.751h38.975c2.637,0,4.93,1.786,5.576,4.342l40.31,159.487
				c0.168,0.666,0.767,1.132,1.454,1.132h112.183c3.171,0,5.751,2.58,5.751,5.751s-2.58,5.751-5.751,5.751h-117.83
				c-2.637,0-4.929-1.786-5.575-4.342L64.666,67.704c-0.203-0.803-1.016-1.289-1.822-1.086c-0.803,0.203-1.29,1.018-1.086,1.822
				l30.943,122.426c0.983,3.891,4.471,6.607,8.484,6.607h117.83c4.825,0,8.751-3.926,8.751-8.751S223.84,179.971,219.015,179.971z"
				/>
		</g>
	</g>
	<g>
		<g>
			<path class="st26" d="M240.226,70.633c-1-1.37-2.54-2.16-4.24-2.16h-15c1.7,0,3.24,0.79,4.24,2.16c1,1.37,1.27,3.09,0.75,4.7
				l-27.75,85.47c-0.71,2.16-2.71,3.62-4.99,3.62h15c2.28,0,4.28-1.46,4.99-3.62l27.75-85.47
				C241.496,73.723,241.226,72.003,240.226,70.633z"/>
		</g>
	</g>
	<g>
		<g>
			<path class="st17" d="M219.016,182.973h-15c3.17,0,5.75,2.58,5.75,5.75c0,3.17-2.58,5.75-5.75,5.75h15
				c3.17,0,5.75-2.58,5.75-5.75C224.766,185.553,222.186,182.973,219.016,182.973z"/>
		</g>
	</g>
	<g>
		<g>
			<path class="st1" d="M50.246,93.193c-0.974,11.564-13.024,13.39-13.024,13.39c10.347,0.487,12.925,14.059,12.925,14.059
				c0.221-9.677,13.321-14.202,13.321-14.202C53.654,105.852,50.246,93.193,50.246,93.193z"/>
		</g>
	</g>
	<g>
		<g>
			<path class="st0" d="M63.557,104.942c-8.605-0.514-11.832-12.024-11.863-12.14c-0.191-0.703-0.864-1.164-1.583-1.102
				c-0.725,0.066-1.298,0.642-1.359,1.367c-0.86,10.215-11.314,11.963-11.754,12.032c-0.763,0.115-1.313,0.79-1.273,1.561
				c0.04,0.77,0.657,1.384,1.427,1.421c9.028,0.425,11.499,12.719,11.523,12.843c0.137,0.711,0.759,1.217,1.472,1.217
				c0.042,0,0.084-0.002,0.126-0.005c0.764-0.064,1.357-0.693,1.374-1.459c0.194-8.509,12.191-12.777,12.313-12.819
				c0.675-0.235,1.092-0.914,0.994-1.622C64.854,105.526,64.271,104.985,63.557,104.942z M49.991,115.288
				c-1.357-3.13-3.709-6.907-7.587-8.877c2.931-1.405,6.409-3.913,8.202-8.273c1.551,3.071,4.2,6.88,8.334,8.722
				C55.933,108.501,52.018,111.266,49.991,115.288z"/>
		</g>
	</g>
	<g>
		<g>
			<path class="st1" d="M28.547,110.174c-0.689,8.179-9.212,9.471-9.212,9.471c7.318,0.344,9.142,9.944,9.142,9.944
				c0.156-6.844,9.422-10.045,9.422-10.045C30.958,119.128,28.547,110.174,28.547,110.174z"/>
		</g>
	</g>
	<g>
		<g>
			<path class="st0" d="M37.988,118.045c-5.766-0.345-7.972-8.185-7.994-8.264c-0.19-0.702-0.856-1.17-1.582-1.102
				c-0.726,0.065-1.299,0.642-1.36,1.368c-0.579,6.871-7.646,8.066-7.942,8.113c-0.763,0.115-1.313,0.79-1.273,1.561
				c0.04,0.77,0.657,1.384,1.427,1.421c6.036,0.284,7.724,8.644,7.739,8.726c0.135,0.713,0.759,1.22,1.472,1.22
				c0.042,0,0.083-0.001,0.125-0.005c0.765-0.064,1.358-0.694,1.376-1.461c0.13-5.709,8.332-8.634,8.413-8.662
				c0.677-0.234,1.094-0.913,0.996-1.622C39.288,118.63,38.703,118.088,37.988,118.045z M28.404,124.841
				c-0.924-1.886-2.34-3.947-4.447-5.28c1.856-1.042,3.697-2.63,4.871-4.917c1.057,1.874,2.654,3.955,4.942,5.224
				C31.919,120.969,29.78,122.609,28.404,124.841z"/>
		</g>
	</g>
	<g>
		<g>
			<path class="st1" d="M28.547,83.516c-0.689,8.179-9.212,9.471-9.212,9.471c7.318,0.344,9.142,9.944,9.142,9.944
				c0.156-6.845,9.422-10.045,9.422-10.045C30.958,92.47,28.547,83.516,28.547,83.516z"/>
		</g>
	</g>
	<g>
		<g>
			<path class="st0" d="M37.989,91.388c-5.767-0.345-7.973-8.186-7.994-8.265c-0.19-0.702-0.856-1.163-1.582-1.102
				c-0.726,0.065-1.299,0.642-1.36,1.368c-0.579,6.871-7.646,8.067-7.942,8.114c-0.763,0.115-1.314,0.79-1.273,1.561
				c0.04,0.77,0.657,1.384,1.428,1.421c6.035,0.284,7.723,8.644,7.739,8.725c0.135,0.713,0.759,1.22,1.472,1.22
				c0.042,0,0.083-0.002,0.125-0.005c0.765-0.063,1.358-0.694,1.376-1.461c0.13-5.709,8.331-8.634,8.413-8.662
				c0.676-0.234,1.094-0.913,0.996-1.622C39.288,91.973,38.703,91.431,37.989,91.388z M28.404,98.183
				c-0.924-1.885-2.34-3.947-4.447-5.28c1.856-1.041,3.697-2.63,4.871-4.916c1.057,1.873,2.655,3.954,4.942,5.224
				C31.919,94.311,29.78,95.951,28.404,98.183z"/>
		</g>
	</g>
	<g>
		<g>
			<circle class="st37" cx="64.055" cy="194.771" r="44.72"/>
		</g>
	</g>
	<g>
		<g>
			<path class="st0" d="M64.055,148.55c-25.486,0-46.22,20.734-46.22,46.22c0,25.486,20.734,46.22,46.22,46.22
				c25.486,0,46.22-20.734,46.22-46.22C110.275,169.285,89.541,148.55,64.055,148.55z M64.055,237.991
				c-23.832,0-43.22-19.389-43.22-43.22c0-23.832,19.389-43.22,43.22-43.22s43.22,19.389,43.22,43.22
				C107.275,218.602,87.886,237.991,64.055,237.991z"/>
		</g>
	</g>
	<g>
		<g>
			<polygon class="st4" points="73.81,185.295 73.81,166.105 54.299,166.105 54.299,185.295 35.109,185.295 35.109,204.806 
				54.299,204.806 54.299,223.996 73.81,223.996 73.81,204.806 93,204.806 93,185.295 			"/>
		</g>
	</g>
	<g>
		<g>
			<path class="st0" d="M93,183.794H75.31v-17.689c0-0.829-0.671-1.5-1.5-1.5H54.299c-0.829,0-1.5,0.671-1.5,1.5v17.689h-17.69
				c-0.829,0-1.5,0.671-1.5,1.5v19.512c0,0.829,0.671,1.5,1.5,1.5h17.69v17.69c0,0.829,0.671,1.5,1.5,1.5H73.81
				c0.829,0,1.5-0.671,1.5-1.5v-17.69H93c0.829,0,1.5-0.671,1.5-1.5v-19.512C94.5,184.466,93.829,183.794,93,183.794z M91.5,203.306
				H73.81c-0.829,0-1.5,0.671-1.5,1.5v17.69H55.799v-17.69c0-0.829-0.671-1.5-1.5-1.5h-17.69v-16.512h17.69
				c0.829,0,1.5-0.671,1.5-1.5v-17.689H72.31v17.689c0,0.829,0.671,1.5,1.5,1.5H91.5V203.306z"/>
		</g>
	</g>
</g>
</svg>
